<mxfile host="app.diagrams.net" modified="2024-07-23T14:06:32.457Z" agent="Mozilla/5.0 (Windows NT 10.0; Win64; x64) AppleWebKit/537.36 (KHTML, like Gecko) Chrome/126.0.0.0 Safari/537.36 Edg/126.0.0.0" etag="462TpOKMZZA0pQJK_Asz" version="24.7.1" type="github" pages="2">
  <diagram name="Page-1" id="e7e014a7-5840-1c2e-5031-d8a46d1fe8dd">
    <mxGraphModel dx="842" dy="459" grid="1" gridSize="10" guides="1" tooltips="1" connect="1" arrows="1" fold="1" page="1" pageScale="1" pageWidth="1169" pageHeight="826" background="none" math="0" shadow="0">
      <root>
        <mxCell id="0" />
        <mxCell id="1" parent="0" />
        <mxCell id="2" value="Thread 1" style="swimlane;whiteSpace=wrap" parent="1" vertex="1">
          <mxGeometry x="164.5" y="128" width="280" height="570" as="geometry">
            <mxRectangle x="164.5" y="128" width="90" height="30" as="alternateBounds" />
          </mxGeometry>
        </mxCell>
        <mxCell id="5" value="" style="ellipse;shape=startState;fillColor=#000000;strokeColor=#ff0000;" parent="2" vertex="1">
          <mxGeometry x="100" y="40" width="30" height="30" as="geometry" />
        </mxCell>
        <mxCell id="6" value="" style="edgeStyle=elbowEdgeStyle;elbow=horizontal;verticalAlign=bottom;endArrow=open;endSize=8;strokeColor=#FF0000;endFill=1;rounded=0" parent="2" source="5" target="7" edge="1">
          <mxGeometry x="100" y="40" as="geometry">
            <mxPoint x="115" y="110" as="targetPoint" />
          </mxGeometry>
        </mxCell>
        <mxCell id="7" value="idle" style="" parent="2" vertex="1">
          <mxGeometry x="60" y="110" width="110" height="50" as="geometry" />
        </mxCell>
        <mxCell id="8" value="user action" style="" parent="2" vertex="1">
          <mxGeometry x="60" y="220" width="110" height="50" as="geometry" />
        </mxCell>
        <mxCell id="9" value="" style="endArrow=open;strokeColor=#FF0000;endFill=1;rounded=0" parent="2" source="7" target="8" edge="1">
          <mxGeometry relative="1" as="geometry" />
        </mxCell>
        <mxCell id="10" value="post command" style="" parent="2" vertex="1">
          <mxGeometry x="60" y="325" width="110" height="50" as="geometry" />
        </mxCell>
        <mxCell id="11" value="" style="endArrow=open;strokeColor=#FF0000;endFill=1;rounded=0" parent="2" source="8" target="10" edge="1">
          <mxGeometry relative="1" as="geometry" />
        </mxCell>
        <mxCell id="12" value="" style="edgeStyle=elbowEdgeStyle;elbow=horizontal;strokeColor=#FF0000;endArrow=open;endFill=1;rounded=0" parent="2" source="10" target="7" edge="1">
          <mxGeometry width="100" height="100" relative="1" as="geometry">
            <mxPoint x="160" y="290" as="sourcePoint" />
            <mxPoint x="260" y="190" as="targetPoint" />
            <Array as="points">
              <mxPoint x="30" y="250" />
            </Array>
          </mxGeometry>
        </mxCell>
        <mxCell id="3" value="Thread 2" style="swimlane;whiteSpace=wrap" parent="1" vertex="1">
          <mxGeometry x="444.5" y="128" width="280" height="570" as="geometry" />
        </mxCell>
        <mxCell id="13" value="" style="ellipse;shape=startState;fillColor=#000000;strokeColor=#ff0000;" parent="3" vertex="1">
          <mxGeometry x="60" y="40" width="30" height="30" as="geometry" />
        </mxCell>
        <mxCell id="14" value="" style="edgeStyle=elbowEdgeStyle;elbow=horizontal;verticalAlign=bottom;endArrow=open;endSize=8;strokeColor=#FF0000;endFill=1;rounded=0" parent="3" source="13" target="15" edge="1">
          <mxGeometry x="40" y="20" as="geometry">
            <mxPoint x="55" y="90" as="targetPoint" />
          </mxGeometry>
        </mxCell>
        <mxCell id="15" value="idle" style="" parent="3" vertex="1">
          <mxGeometry x="20" y="110" width="110" height="50" as="geometry" />
        </mxCell>
        <mxCell id="16" value="check for &#xa;new commands" style="" parent="3" vertex="1">
          <mxGeometry x="20" y="220" width="110" height="50" as="geometry" />
        </mxCell>
        <mxCell id="17" value="" style="endArrow=open;strokeColor=#FF0000;endFill=1;rounded=0" parent="3" source="15" target="16" edge="1">
          <mxGeometry relative="1" as="geometry" />
        </mxCell>
        <mxCell id="18" value="command queue" style="" parent="3" vertex="1">
          <mxGeometry x="20" y="325" width="110" height="50" as="geometry" />
        </mxCell>
        <mxCell id="19" value="" style="endArrow=open;strokeColor=#FF0000;endFill=1;rounded=0" parent="3" source="16" target="18" edge="1">
          <mxGeometry relative="1" as="geometry" />
        </mxCell>
        <mxCell id="21" value="queue empty" style="rhombus;fillColor=#ffffc0;strokeColor=#ff0000;" parent="3" vertex="1">
          <mxGeometry x="150" y="225" width="80" height="40" as="geometry" />
        </mxCell>
        <mxCell id="22" value="yes" style="edgeStyle=elbowEdgeStyle;elbow=horizontal;align=left;verticalAlign=bottom;endArrow=open;endSize=8;strokeColor=#FF0000;exitX=0.5;exitY=0;endFill=1;rounded=0;entryX=0.75;entryY=0.5;entryPerimeter=0" parent="3" source="21" target="25" edge="1">
          <mxGeometry x="-1" relative="1" as="geometry">
            <mxPoint x="160" y="150" as="targetPoint" />
            <Array as="points">
              <mxPoint x="190" y="180" />
            </Array>
          </mxGeometry>
        </mxCell>
        <mxCell id="23" value="no" style="edgeStyle=elbowEdgeStyle;elbow=horizontal;align=left;verticalAlign=top;endArrow=open;endSize=8;strokeColor=#FF0000;endFill=1;rounded=0" parent="3" source="21" target="30" edge="1">
          <mxGeometry x="-1" relative="1" as="geometry">
            <mxPoint x="190" y="305" as="targetPoint" />
          </mxGeometry>
        </mxCell>
        <mxCell id="24" value="" style="endArrow=open;strokeColor=#FF0000;endFill=1;rounded=0" parent="3" source="16" target="21" edge="1">
          <mxGeometry relative="1" as="geometry" />
        </mxCell>
        <mxCell id="25" value="" style="shape=line;strokeWidth=6;strokeColor=#ff0000;rotation=90" parent="3" vertex="1">
          <mxGeometry x="130" y="127.5" width="50" height="15" as="geometry" />
        </mxCell>
        <mxCell id="26" value="" style="edgeStyle=elbowEdgeStyle;elbow=horizontal;verticalAlign=bottom;endArrow=open;endSize=8;strokeColor=#FF0000;endFill=1;rounded=0" parent="3" source="25" target="15" edge="1">
          <mxGeometry x="130" y="90" as="geometry">
            <mxPoint x="230" y="140" as="targetPoint" />
          </mxGeometry>
        </mxCell>
        <mxCell id="30" value="dispatch&#xa;command&#xa;worker thread" style="" parent="3" vertex="1">
          <mxGeometry x="140" y="325" width="110" height="50" as="geometry" />
        </mxCell>
        <mxCell id="31" value="critical&#xa;section" style="shape=note;whiteSpace=wrap;size=17" parent="3" vertex="1">
          <mxGeometry x="105" y="490" width="100" height="50" as="geometry" />
        </mxCell>
        <mxCell id="32" value="" style="endArrow=none;strokeColor=#FF0000;endFill=0;rounded=0;dashed=1" parent="3" source="18" target="31" edge="1">
          <mxGeometry relative="1" as="geometry" />
        </mxCell>
        <mxCell id="34" value="" style="whiteSpace=wrap;strokeColor=#FF0000;fillColor=#FF0000" parent="3" vertex="1">
          <mxGeometry x="245" y="395" width="5" height="45" as="geometry" />
        </mxCell>
        <mxCell id="41" value="" style="edgeStyle=elbowEdgeStyle;elbow=horizontal;entryX=0;entryY=0.5;strokeColor=#FF0000;endArrow=open;endFill=1;rounded=0" parent="3" source="30" target="34" edge="1">
          <mxGeometry width="100" height="100" relative="1" as="geometry">
            <mxPoint x="60" y="480" as="sourcePoint" />
            <mxPoint x="160" y="380" as="targetPoint" />
            <Array as="points">
              <mxPoint x="195" y="400" />
            </Array>
          </mxGeometry>
        </mxCell>
        <mxCell id="4" value="Thread 3" style="swimlane;whiteSpace=wrap" parent="1" vertex="1">
          <mxGeometry x="724.5" y="128" width="280" height="570" as="geometry" />
        </mxCell>
        <mxCell id="33" value="process&#xa;command" style="" parent="4" vertex="1">
          <mxGeometry x="90" y="405" width="110" height="50" as="geometry" />
        </mxCell>
        <mxCell id="35" value="" style="edgeStyle=elbowEdgeStyle;elbow=horizontal;strokeColor=#FF0000;endArrow=open;endFill=1;rounded=0;entryX=0.25;entryY=0.5;entryPerimeter=0" parent="4" target="25" edge="1">
          <mxGeometry width="100" height="100" relative="1" as="geometry">
            <mxPoint x="-30" y="410" as="sourcePoint" />
            <mxPoint x="-120" y="120" as="targetPoint" />
            <Array as="points">
              <mxPoint x="-10" y="135" />
            </Array>
          </mxGeometry>
        </mxCell>
        <mxCell id="37" value="" style="edgeStyle=none;strokeColor=#FF0000;endArrow=open;endFill=1;rounded=0" parent="4" target="33" edge="1">
          <mxGeometry width="100" height="100" relative="1" as="geometry">
            <mxPoint x="-30" y="429.5" as="sourcePoint" />
            <mxPoint x="90" y="429.5" as="targetPoint" />
          </mxGeometry>
        </mxCell>
        <mxCell id="38" value="" style="ellipse;shape=endState;fillColor=#000000;strokeColor=#ff0000" parent="4" vertex="1">
          <mxGeometry x="130" y="500" width="30" height="30" as="geometry" />
        </mxCell>
        <mxCell id="39" value="" style="endArrow=open;strokeColor=#FF0000;endFill=1;rounded=0" parent="4" source="33" target="38" edge="1">
          <mxGeometry relative="1" as="geometry" />
        </mxCell>
        <mxCell id="20" value="" style="endArrow=open;strokeColor=#FF0000;endFill=1;rounded=0" parent="1" source="10" target="18" edge="1">
          <mxGeometry relative="1" as="geometry" />
        </mxCell>
      </root>
    </mxGraphModel>
  </diagram>
  <diagram id="SHbgOikVVxAgqeq22MZb" name="Page-2">
    <mxGraphModel dx="1203" dy="656" grid="1" gridSize="10" guides="1" tooltips="1" connect="1" arrows="1" fold="1" page="1" pageScale="1" pageWidth="850" pageHeight="1100" math="0" shadow="0">
      <root>
        <mxCell id="0" />
        <mxCell id="1" parent="0" />
        <mxCell id="TQDxyWX65BMw1ujJQMrJ-6" value="" style="rounded=0;whiteSpace=wrap;html=1;" vertex="1" parent="1">
          <mxGeometry x="40" y="120" width="800" height="680" as="geometry" />
        </mxCell>
        <mxCell id="TQDxyWX65BMw1ujJQMrJ-20" value="Consultant Mindset" style="text;html=1;align=center;verticalAlign=middle;whiteSpace=wrap;rounded=0;" vertex="1" parent="1">
          <mxGeometry x="640" y="120" width="200" height="40" as="geometry" />
        </mxCell>
        <mxCell id="TQDxyWX65BMw1ujJQMrJ-10" value="" style="endArrow=none;html=1;rounded=0;exitX=0.25;exitY=1;exitDx=0;exitDy=0;entryX=0.165;entryY=-0.002;entryDx=0;entryDy=0;entryPerimeter=0;" edge="1" parent="1" source="TQDxyWX65BMw1ujJQMrJ-6">
          <mxGeometry width="50" height="50" relative="1" as="geometry">
            <mxPoint x="239.3599999999999" y="559.12" as="sourcePoint" />
            <mxPoint x="240.79999999999995" y="119.12" as="targetPoint" />
          </mxGeometry>
        </mxCell>
        <mxCell id="TQDxyWX65BMw1ujJQMrJ-11" value="" style="endArrow=none;html=1;rounded=0;exitX=0.5;exitY=1;exitDx=0;exitDy=0;entryX=0.165;entryY=-0.002;entryDx=0;entryDy=0;entryPerimeter=0;" edge="1" parent="1" source="TQDxyWX65BMw1ujJQMrJ-6">
          <mxGeometry width="50" height="50" relative="1" as="geometry">
            <mxPoint x="439.3599999999999" y="561.12" as="sourcePoint" />
            <mxPoint x="440.79999999999995" y="121.12" as="targetPoint" />
          </mxGeometry>
        </mxCell>
        <mxCell id="TQDxyWX65BMw1ujJQMrJ-12" value="BA" style="text;html=1;align=center;verticalAlign=middle;whiteSpace=wrap;rounded=0;" vertex="1" parent="1">
          <mxGeometry x="40" y="120" width="200" height="40" as="geometry" />
        </mxCell>
        <mxCell id="TQDxyWX65BMw1ujJQMrJ-13" value="" style="endArrow=none;html=1;rounded=0;exitX=0.75;exitY=1;exitDx=0;exitDy=0;entryX=0.165;entryY=-0.002;entryDx=0;entryDy=0;entryPerimeter=0;" edge="1" parent="1" source="TQDxyWX65BMw1ujJQMrJ-6">
          <mxGeometry width="50" height="50" relative="1" as="geometry">
            <mxPoint x="639.3599999999999" y="561.12" as="sourcePoint" />
            <mxPoint x="640.8" y="121.12" as="targetPoint" />
          </mxGeometry>
        </mxCell>
        <mxCell id="TQDxyWX65BMw1ujJQMrJ-15" value="Salesforce Stack" style="text;html=1;align=center;verticalAlign=middle;whiteSpace=wrap;rounded=0;" vertex="1" parent="1">
          <mxGeometry x="240" y="120" width="200" height="40" as="geometry" />
        </mxCell>
        <mxCell id="TQDxyWX65BMw1ujJQMrJ-19" value="" style="endArrow=none;html=1;rounded=0;entryX=0.999;entryY=0.101;entryDx=0;entryDy=0;exitX=-0.005;exitY=0.103;exitDx=0;exitDy=0;exitPerimeter=0;entryPerimeter=0;" edge="1" parent="1">
          <mxGeometry width="50" height="50" relative="1" as="geometry">
            <mxPoint x="36" y="170.03999999999996" as="sourcePoint" />
            <mxPoint x="839.2" y="168.67999999999995" as="targetPoint" />
          </mxGeometry>
        </mxCell>
        <mxCell id="TQDxyWX65BMw1ujJQMrJ-18" value="Tools" style="text;html=1;align=center;verticalAlign=middle;whiteSpace=wrap;rounded=0;" vertex="1" parent="1">
          <mxGeometry x="440" y="120" width="200" height="40" as="geometry" />
        </mxCell>
        <mxCell id="TQDxyWX65BMw1ujJQMrJ-23" value="Business Acumen" style="text;html=1;align=center;verticalAlign=middle;whiteSpace=wrap;rounded=1;glass=0;strokeWidth=1;strokeColor=default;" vertex="1" parent="1">
          <mxGeometry x="650" y="185" width="180" height="43" as="geometry" />
        </mxCell>
        <mxCell id="TQDxyWX65BMw1ujJQMrJ-25" value="Requirement Engineering" style="text;html=1;align=center;verticalAlign=middle;whiteSpace=wrap;rounded=1;glass=0;strokeWidth=1;strokeColor=default;" vertex="1" parent="1">
          <mxGeometry x="50" y="248.5" width="180" height="40" as="geometry" />
        </mxCell>
        <mxCell id="TQDxyWX65BMw1ujJQMrJ-26" value="Planning&lt;span style=&quot;color: rgba(0, 0, 0, 0); font-family: monospace; font-size: 0px; text-align: start; text-wrap: nowrap;&quot;&gt;%3CmxGraphModel%3E%3Croot%3E%3CmxCell%20id%3D%220%22%2F%3E%3CmxCell%20id%3D%221%22%20parent%3D%220%22%2F%3E%3CmxCell%20id%3D%222%22%20value%3D%22Requirement%20Engineering%22%20style%3D%22text%3Bhtml%3D1%3Balign%3Dcenter%3BverticalAlign%3Dmiddle%3BwhiteSpace%3Dwrap%3Brounded%3D1%3Bglass%3D0%3BstrokeWidth%3D1%3BstrokeColor%3Ddefault%3B%22%20vertex%3D%221%22%20parent%3D%221%22%3E%3CmxGeometry%20x%3D%2250%22%20y%3D%22170%22%20width%3D%22180%22%20height%3D%2240%22%20as%3D%22geometry%22%2F%3E%3C%2FmxCell%3E%3C%2Froot%3E%3C%2FmxGraphModel%3E&lt;/span&gt;" style="text;html=1;align=center;verticalAlign=middle;whiteSpace=wrap;rounded=1;glass=0;strokeWidth=1;strokeColor=default;" vertex="1" parent="1">
          <mxGeometry x="50" y="368" width="180" height="40" as="geometry" />
        </mxCell>
        <mxCell id="TQDxyWX65BMw1ujJQMrJ-27" value="Documentation" style="text;html=1;align=center;verticalAlign=middle;whiteSpace=wrap;rounded=1;glass=0;strokeWidth=1;strokeColor=default;" vertex="1" parent="1">
          <mxGeometry x="50" y="308.5" width="180" height="40" as="geometry" />
        </mxCell>
        <mxCell id="TQDxyWX65BMw1ujJQMrJ-28" value="All aspects of SDLC" style="text;html=1;align=center;verticalAlign=middle;whiteSpace=wrap;rounded=1;glass=0;strokeWidth=1;strokeColor=default;" vertex="1" parent="1">
          <mxGeometry x="50" y="185" width="180" height="43" as="geometry" />
        </mxCell>
        <mxCell id="TQDxyWX65BMw1ujJQMrJ-29" value="UML/User Journey/Process Flow" style="text;html=1;align=center;verticalAlign=middle;whiteSpace=wrap;rounded=1;glass=0;strokeWidth=1;strokeColor=default;" vertex="1" parent="1">
          <mxGeometry x="448" y="186.5" width="184" height="43" as="geometry" />
        </mxCell>
        <mxCell id="TQDxyWX65BMw1ujJQMrJ-30" value="Presentations" style="text;html=1;align=center;verticalAlign=middle;whiteSpace=wrap;rounded=1;glass=0;strokeWidth=1;strokeColor=default;" vertex="1" parent="1">
          <mxGeometry x="448" y="305.5" width="184" height="43" as="geometry" />
        </mxCell>
        <mxCell id="TQDxyWX65BMw1ujJQMrJ-31" value="Wireframes/Mockups" style="text;html=1;align=center;verticalAlign=middle;whiteSpace=wrap;rounded=1;glass=0;strokeWidth=1;strokeColor=default;" vertex="1" parent="1">
          <mxGeometry x="448" y="246.5" width="184" height="43" as="geometry" />
        </mxCell>
        <mxCell id="TQDxyWX65BMw1ujJQMrJ-32" value="OOB Platform Features&lt;span style=&quot;color: rgba(0, 0, 0, 0); font-family: monospace; font-size: 0px; text-align: start; text-wrap: nowrap;&quot;&gt;%3CmxGraphModel%3E%3Croot%3E%3CmxCell%20id%3D%220%22%2F%3E%3CmxCell%20id%3D%221%22%20parent%3D%220%22%2F%3E%3CmxCell%20id%3D%222%22%20value%3D%22Requirement%20Engineering%22%20style%3D%22text%3Bhtml%3D1%3Balign%3Dcenter%3BverticalAlign%3Dmiddle%3BwhiteSpace%3Dwrap%3Brounded%3D1%3Bglass%3D0%3BstrokeWidth%3D1%3BstrokeColor%3Ddefault%3B%22%20vertex%3D%221%22%20parent%3D%221%22%3E%3CmxGeometry%20x%3D%2250%22%20y%3D%22170%22%20width%3D%22180%22%20height%3D%2240%22%20as%3D%22geometry%22%2F%3E%3C%2FmxCell%3E%3C%2Froot%3E%3C%2FmxGraphModel%3E&lt;/span&gt;" style="text;html=1;align=center;verticalAlign=middle;whiteSpace=wrap;rounded=1;glass=0;strokeWidth=1;strokeColor=default;" vertex="1" parent="1">
          <mxGeometry x="250" y="186.5" width="180" height="40" as="geometry" />
        </mxCell>
        <mxCell id="TQDxyWX65BMw1ujJQMrJ-33" value="Apex" style="text;html=1;align=center;verticalAlign=middle;whiteSpace=wrap;rounded=1;glass=0;strokeWidth=1;strokeColor=default;" vertex="1" parent="1">
          <mxGeometry x="250" y="682.5" width="180" height="41" as="geometry" />
        </mxCell>
        <mxCell id="TQDxyWX65BMw1ujJQMrJ-34" value="LWC" style="text;html=1;align=center;verticalAlign=middle;whiteSpace=wrap;rounded=1;glass=0;strokeWidth=1;strokeColor=default;" vertex="1" parent="1">
          <mxGeometry x="250" y="744.5" width="180" height="41" as="geometry" />
        </mxCell>
        <mxCell id="TQDxyWX65BMw1ujJQMrJ-35" value="CPQ" style="text;html=1;align=center;verticalAlign=middle;whiteSpace=wrap;rounded=1;glass=0;strokeWidth=1;strokeColor=default;" vertex="1" parent="1">
          <mxGeometry x="250" y="557.5" width="180" height="41" as="geometry" />
        </mxCell>
        <mxCell id="TQDxyWX65BMw1ujJQMrJ-36" value="Sales Cloud" style="text;html=1;align=center;verticalAlign=middle;whiteSpace=wrap;rounded=1;glass=0;strokeWidth=1;strokeColor=default;" vertex="1" parent="1">
          <mxGeometry x="250" y="247.5" width="180" height="41" as="geometry" />
        </mxCell>
        <mxCell id="TQDxyWX65BMw1ujJQMrJ-37" value="Service Cloud" style="text;html=1;align=center;verticalAlign=middle;whiteSpace=wrap;rounded=1;glass=0;strokeWidth=1;strokeColor=default;" vertex="1" parent="1">
          <mxGeometry x="250" y="619.5" width="180" height="41" as="geometry" />
        </mxCell>
        <mxCell id="TQDxyWX65BMw1ujJQMrJ-38" value="Experience Cloud" style="text;html=1;align=center;verticalAlign=middle;whiteSpace=wrap;rounded=1;glass=0;strokeWidth=1;strokeColor=default;" vertex="1" parent="1">
          <mxGeometry x="250" y="371.5" width="180" height="41" as="geometry" />
        </mxCell>
        <mxCell id="TQDxyWX65BMw1ujJQMrJ-39" value="Tableau" style="text;html=1;align=center;verticalAlign=middle;whiteSpace=wrap;rounded=1;glass=0;strokeWidth=1;strokeColor=default;" vertex="1" parent="1">
          <mxGeometry x="448" y="365" width="184" height="43" as="geometry" />
        </mxCell>
        <mxCell id="TQDxyWX65BMw1ujJQMrJ-41" value="Reporting/Visualization Techniques" style="text;html=1;align=center;verticalAlign=middle;whiteSpace=wrap;rounded=1;glass=0;strokeWidth=1;strokeColor=default;" vertex="1" parent="1">
          <mxGeometry x="650" y="245.5" width="180" height="43" as="geometry" />
        </mxCell>
        <mxCell id="TQDxyWX65BMw1ujJQMrJ-42" value="CRMA" style="text;html=1;align=center;verticalAlign=middle;whiteSpace=wrap;rounded=1;glass=0;strokeWidth=1;strokeColor=default;" vertex="1" parent="1">
          <mxGeometry x="250" y="433" width="180" height="41" as="geometry" />
        </mxCell>
        <mxCell id="TQDxyWX65BMw1ujJQMrJ-43" value="Data Cloud" style="text;html=1;align=center;verticalAlign=middle;whiteSpace=wrap;rounded=1;glass=0;strokeWidth=1;strokeColor=default;" vertex="1" parent="1">
          <mxGeometry x="250" y="495" width="180" height="41" as="geometry" />
        </mxCell>
        <mxCell id="TQDxyWX65BMw1ujJQMrJ-44" value="Shield" style="text;html=1;align=center;verticalAlign=middle;whiteSpace=wrap;rounded=1;glass=0;strokeWidth=1;strokeColor=default;" vertex="1" parent="1">
          <mxGeometry x="250" y="310" width="180" height="41" as="geometry" />
        </mxCell>
      </root>
    </mxGraphModel>
  </diagram>
</mxfile>
